<mxfile host="65bd71144e" compressed="false">
    <diagram id="86R6ZRfhnQo9sD8B5-7s" name="Page-1">
        <mxGraphModel dx="2268" dy="1302" grid="1" gridSize="10" guides="1" tooltips="1" connect="1" arrows="1" fold="1" page="1" pageScale="1" pageWidth="827" pageHeight="1169" background="#161923" math="0" shadow="0">
            <root>
                <mxCell id="0"/>
                <mxCell id="1" parent="0"/>
                <mxCell id="112" value="" style="rounded=0;whiteSpace=wrap;html=1;labelBackgroundColor=none;fontSize=14;fontColor=#BCBDD0;strokeColor=#bcbdd0;strokeWidth=2;fillColor=none;dashed=1;" parent="1" vertex="1">
                    <mxGeometry x="180" y="120" width="1090" height="720" as="geometry"/>
                </mxCell>
                <mxCell id="2" value="PWM" style="rounded=0;whiteSpace=wrap;html=1;fillColor=none;strokeColor=#BCBDD0;fontColor=#BCBDD0;fontSize=14;strokeWidth=3;" parent="1" vertex="1">
                    <mxGeometry x="1150" y="300" width="80" height="80" as="geometry"/>
                </mxCell>
                <mxCell id="3" value="" style="endArrow=classic;html=1;fontFamily=Helvetica;fontSize=14;fontColor=#BCBDD0;exitX=1;exitY=0.5;exitDx=0;exitDy=0;strokeColor=#BCBDD0;strokeWidth=3;" parent="1" source="2" edge="1">
                    <mxGeometry width="50" height="50" relative="1" as="geometry">
                        <mxPoint x="1430" y="330" as="sourcePoint"/>
                        <mxPoint x="1320" y="340" as="targetPoint"/>
                    </mxGeometry>
                </mxCell>
                <mxCell id="4" value="" style="endArrow=none;html=1;rounded=1;labelBackgroundColor=default;fontFamily=Helvetica;fontSize=14;fontColor=#BCBDD0;strokeColor=#BCBDD0;strokeWidth=3;shape=connector;" parent="1" edge="1">
                    <mxGeometry width="50" height="50" relative="1" as="geometry">
                        <mxPoint x="1280" y="350" as="sourcePoint"/>
                        <mxPoint x="1300" y="330" as="targetPoint"/>
                        <Array as="points">
                            <mxPoint x="1290" y="340"/>
                        </Array>
                    </mxGeometry>
                </mxCell>
                <mxCell id="8" value="Silencer" style="rounded=0;whiteSpace=wrap;html=1;fontFamily=Helvetica;fontSize=14;fontColor=#BCBDD0;strokeColor=#BCBDD0;strokeWidth=3;fillColor=none;" parent="1" vertex="1">
                    <mxGeometry x="980" y="300" width="80" height="80" as="geometry"/>
                </mxCell>
                <mxCell id="10" value="" style="endArrow=classic;html=1;rounded=1;labelBackgroundColor=default;fontFamily=Helvetica;fontSize=14;fontColor=#BCBDD0;strokeColor=#BCBDD0;strokeWidth=3;shape=connector;exitX=1;exitY=0.25;exitDx=0;exitDy=0;entryX=0;entryY=0.25;entryDx=0;entryDy=0;" parent="1" source="8" target="2" edge="1">
                    <mxGeometry width="50" height="50" relative="1" as="geometry">
                        <mxPoint x="1200" y="290" as="sourcePoint"/>
                        <mxPoint x="1250" y="240" as="targetPoint"/>
                    </mxGeometry>
                </mxCell>
                <mxCell id="11" value="" style="endArrow=classic;html=1;rounded=1;labelBackgroundColor=default;fontFamily=Helvetica;fontSize=14;fontColor=#BCBDD0;strokeColor=#BCBDD0;strokeWidth=3;shape=connector;exitX=1;exitY=0.75;exitDx=0;exitDy=0;entryX=0;entryY=0.75;entryDx=0;entryDy=0;" parent="1" source="8" target="2" edge="1">
                    <mxGeometry width="50" height="50" relative="1" as="geometry">
                        <mxPoint x="1070" y="330" as="sourcePoint"/>
                        <mxPoint x="1190" y="330" as="targetPoint"/>
                    </mxGeometry>
                </mxCell>
                <mxCell id="12" value="&lt;i style=&quot;font-size: 14px;&quot;&gt;DUTY&lt;/i&gt;" style="text;html=1;strokeColor=none;fillColor=none;align=center;verticalAlign=middle;whiteSpace=wrap;rounded=0;fontFamily=Helvetica;fontSize=14;fontColor=#BCBDD0;" parent="1" vertex="1">
                    <mxGeometry x="1060" y="290" width="50" height="30" as="geometry"/>
                </mxCell>
                <mxCell id="13" value="&lt;i style=&quot;font-size: 14px;&quot;&gt;PHASE&lt;/i&gt;" style="text;html=1;strokeColor=none;fillColor=none;align=center;verticalAlign=middle;whiteSpace=wrap;rounded=0;fontFamily=Helvetica;fontSize=14;fontColor=#BCBDD0;" parent="1" vertex="1">
                    <mxGeometry x="1060" y="330" width="60" height="30" as="geometry"/>
                </mxCell>
                <mxCell id="22" value="Modulater" style="rounded=0;whiteSpace=wrap;html=1;fontFamily=Helvetica;fontSize=14;fontColor=#BCBDD0;strokeColor=#BCBDD0;strokeWidth=3;fillColor=none;" parent="1" vertex="1">
                    <mxGeometry x="830" y="300" width="80" height="80" as="geometry"/>
                </mxCell>
                <mxCell id="23" value="" style="endArrow=classic;html=1;rounded=0;labelBackgroundColor=default;fontFamily=Helvetica;fontSize=14;fontColor=#BCBDD0;strokeColor=#BCBDD0;strokeWidth=3;shape=connector;entryX=0;entryY=0.25;entryDx=0;entryDy=0;exitX=1;exitY=0.25;exitDx=0;exitDy=0;" parent="1" source="22" target="8" edge="1">
                    <mxGeometry width="50" height="50" relative="1" as="geometry">
                        <mxPoint x="900" y="260" as="sourcePoint"/>
                        <mxPoint x="940" y="440" as="targetPoint"/>
                    </mxGeometry>
                </mxCell>
                <mxCell id="25" value="&lt;i style=&quot;font-size: 14px;&quot;&gt;DUTY&lt;/i&gt;" style="text;html=1;strokeColor=none;fillColor=none;align=center;verticalAlign=middle;whiteSpace=wrap;rounded=0;fontFamily=Helvetica;fontSize=14;fontColor=#BCBDD0;" parent="1" vertex="1">
                    <mxGeometry x="910" y="290" width="50" height="30" as="geometry"/>
                </mxCell>
                <mxCell id="31" value="MUX" style="shape=trapezoid;perimeter=trapezoidPerimeter;whiteSpace=wrap;html=1;fixedSize=1;rounded=0;fontFamily=Helvetica;fontSize=14;fontColor=#BCBDD0;strokeColor=#BCBDD0;strokeWidth=3;fillColor=none;rotation=90;size=19.680000000000064;" parent="1" vertex="1">
                    <mxGeometry x="637.82" y="307.5" width="120" height="65" as="geometry"/>
                </mxCell>
                <mxCell id="32" value="" style="endArrow=classic;html=1;rounded=0;labelBackgroundColor=default;fontFamily=Helvetica;fontSize=14;fontColor=#BCBDD0;strokeColor=#BCBDD0;strokeWidth=3;shape=connector;entryX=0;entryY=0.25;entryDx=0;entryDy=0;exitX=0.333;exitY=-0.014;exitDx=0;exitDy=0;exitPerimeter=0;" parent="1" source="31" target="22" edge="1">
                    <mxGeometry width="50" height="50" relative="1" as="geometry">
                        <mxPoint x="910" y="270" as="sourcePoint"/>
                        <mxPoint x="990" y="330" as="targetPoint"/>
                        <Array as="points">
                            <mxPoint x="760" y="320"/>
                        </Array>
                    </mxGeometry>
                </mxCell>
                <mxCell id="34" value="" style="endArrow=classic;html=1;rounded=0;labelBackgroundColor=default;fontFamily=Helvetica;fontSize=14;fontColor=#BCBDD0;strokeColor=#BCBDD0;strokeWidth=3;shape=connector;entryX=0;entryY=0.75;entryDx=0;entryDy=0;exitX=1;exitY=0.75;exitDx=0;exitDy=0;" parent="1" source="22" target="8" edge="1">
                    <mxGeometry width="50" height="50" relative="1" as="geometry">
                        <mxPoint x="790" y="370" as="sourcePoint"/>
                        <mxPoint x="840" y="320" as="targetPoint"/>
                    </mxGeometry>
                </mxCell>
                <mxCell id="35" value="Synchronizer" style="rounded=0;whiteSpace=wrap;html=1;fontFamily=Helvetica;fontSize=14;fontColor=#BCBDD0;strokeColor=#BCBDD0;strokeWidth=3;fillColor=none;" parent="1" vertex="1">
                    <mxGeometry x="830" y="680" width="120" height="120" as="geometry"/>
                </mxCell>
                <mxCell id="36" value="Normal&lt;br style=&quot;font-size: 14px;&quot;&gt;Operator" style="rounded=0;whiteSpace=wrap;html=1;fontFamily=Helvetica;fontSize=14;fontColor=#BCBDD0;strokeColor=#BCBDD0;strokeWidth=3;fillColor=none;" parent="1" vertex="1">
                    <mxGeometry x="300.32" y="275" width="120" height="60" as="geometry"/>
                </mxCell>
                <mxCell id="37" value="STM&lt;br style=&quot;font-size: 14px;&quot;&gt;Operator" style="rounded=0;whiteSpace=wrap;html=1;fontFamily=Helvetica;fontSize=14;fontColor=#BCBDD0;strokeColor=#BCBDD0;strokeWidth=3;fillColor=none;" parent="1" vertex="1">
                    <mxGeometry x="300.32" y="350" width="120" height="60" as="geometry"/>
                </mxCell>
                <mxCell id="38" value="" style="endArrow=classic;html=1;rounded=0;labelBackgroundColor=default;fontFamily=Helvetica;fontSize=14;fontColor=#BCBDD0;strokeColor=#BCBDD0;strokeWidth=3;shape=connector;entryX=0.834;entryY=1.001;entryDx=0;entryDy=0;exitX=1;exitY=0.5;exitDx=0;exitDy=0;entryPerimeter=0;" parent="1" source="37" target="31" edge="1">
                    <mxGeometry width="50" height="50" relative="1" as="geometry">
                        <mxPoint x="750.56" y="369.79999999999995" as="sourcePoint"/>
                        <mxPoint x="990" y="370" as="targetPoint"/>
                    </mxGeometry>
                </mxCell>
                <mxCell id="39" value="&lt;i style=&quot;font-size: 14px;&quot;&gt;DUTY/PHASE&lt;/i&gt;" style="text;html=1;strokeColor=none;fillColor=none;align=center;verticalAlign=middle;whiteSpace=wrap;rounded=0;fontFamily=Helvetica;fontSize=14;fontColor=#BCBDD0;" parent="1" vertex="1">
                    <mxGeometry x="420" y="350" width="100" height="30" as="geometry"/>
                </mxCell>
                <mxCell id="40" value="&lt;i style=&quot;font-size: 14px;&quot;&gt;DUTY/PHASE&lt;/i&gt;" style="text;html=1;strokeColor=none;fillColor=none;align=center;verticalAlign=middle;whiteSpace=wrap;rounded=0;fontFamily=Helvetica;fontSize=14;fontColor=#BCBDD0;" parent="1" vertex="1">
                    <mxGeometry x="420.32" y="275" width="99.68" height="30" as="geometry"/>
                </mxCell>
                <mxCell id="41" value="" style="endArrow=classic;html=1;rounded=0;labelBackgroundColor=default;fontFamily=Helvetica;fontSize=14;fontColor=#BCBDD0;strokeColor=#BCBDD0;strokeWidth=3;shape=connector;entryX=0.208;entryY=1.006;entryDx=0;entryDy=0;exitX=1;exitY=0.5;exitDx=0;exitDy=0;entryPerimeter=0;" parent="1" source="36" target="31" edge="1">
                    <mxGeometry width="50" height="50" relative="1" as="geometry">
                        <mxPoint x="510" y="430" as="sourcePoint"/>
                        <mxPoint x="670.3200000000002" y="380" as="targetPoint"/>
                    </mxGeometry>
                </mxCell>
                <mxCell id="56" style="edgeStyle=none;shape=connector;rounded=0;html=1;exitX=0.833;exitY=-0.001;exitDx=0;exitDy=0;labelBackgroundColor=default;fontFamily=Helvetica;fontSize=14;fontColor=#BCBDD0;endArrow=classic;strokeColor=#BCBDD0;strokeWidth=3;entryX=0.25;entryY=1;entryDx=0;entryDy=0;jumpStyle=arc;exitPerimeter=0;" parent="1" source="55" target="2" edge="1">
                    <mxGeometry relative="1" as="geometry">
                        <mxPoint x="620.1428571428573" y="580" as="targetPoint"/>
                        <Array as="points">
                            <mxPoint x="600" y="580"/>
                            <mxPoint x="1170" y="580"/>
                        </Array>
                    </mxGeometry>
                </mxCell>
                <mxCell id="55" value="Controller" style="rounded=0;whiteSpace=wrap;html=1;fontFamily=Helvetica;fontSize=14;fontColor=#BCBDD0;strokeColor=#BCBDD0;strokeWidth=3;fillColor=none;" parent="1" vertex="1">
                    <mxGeometry x="500" y="680" width="120" height="120" as="geometry"/>
                </mxCell>
                <mxCell id="57" style="edgeStyle=none;shape=connector;rounded=0;html=1;labelBackgroundColor=default;fontFamily=Helvetica;fontSize=14;fontColor=#BCBDD0;endArrow=classic;strokeColor=#BCBDD0;strokeWidth=3;entryX=0.25;entryY=1;entryDx=0;entryDy=0;jumpStyle=arc;exitX=0.667;exitY=-0.004;exitDx=0;exitDy=0;exitPerimeter=0;" parent="1" source="55" target="8" edge="1">
                    <mxGeometry relative="1" as="geometry">
                        <mxPoint x="1170" y="390" as="targetPoint"/>
                        <mxPoint x="620" y="670" as="sourcePoint"/>
                        <Array as="points">
                            <mxPoint x="580" y="560"/>
                            <mxPoint x="1000" y="560"/>
                        </Array>
                    </mxGeometry>
                </mxCell>
                <mxCell id="58" style="edgeStyle=none;shape=connector;rounded=0;html=1;labelBackgroundColor=default;fontFamily=Helvetica;fontSize=14;fontColor=#BCBDD0;endArrow=classic;strokeColor=#BCBDD0;strokeWidth=3;entryX=0.25;entryY=1;entryDx=0;entryDy=0;jumpStyle=arc;exitX=0.5;exitY=0;exitDx=0;exitDy=0;startArrow=none;" parent="1" source="55" target="22" edge="1">
                    <mxGeometry relative="1" as="geometry">
                        <mxPoint x="1010" y="390" as="targetPoint"/>
                        <mxPoint x="210" y="580" as="sourcePoint"/>
                        <Array as="points">
                            <mxPoint x="560" y="540"/>
                            <mxPoint x="850" y="540"/>
                        </Array>
                    </mxGeometry>
                </mxCell>
                <mxCell id="59" style="edgeStyle=none;shape=connector;rounded=0;html=1;labelBackgroundColor=default;fontFamily=Helvetica;fontSize=14;fontColor=#BCBDD0;endArrow=classic;strokeColor=#BCBDD0;strokeWidth=3;entryX=1;entryY=0.5;entryDx=0;entryDy=0;jumpStyle=arc;exitX=0.34;exitY=-0.007;exitDx=0;exitDy=0;exitPerimeter=0;" parent="1" source="55" target="31" edge="1">
                    <mxGeometry relative="1" as="geometry">
                        <mxPoint x="1170" y="390" as="targetPoint"/>
                        <mxPoint x="600" y="680" as="sourcePoint"/>
                        <Array as="points">
                            <mxPoint x="541" y="480"/>
                            <mxPoint x="698" y="480"/>
                        </Array>
                    </mxGeometry>
                </mxCell>
                <mxCell id="60" style="edgeStyle=none;shape=connector;rounded=0;html=1;exitX=0.165;exitY=0.01;exitDx=0;exitDy=0;labelBackgroundColor=default;fontFamily=Helvetica;fontSize=14;fontColor=#BCBDD0;endArrow=classic;strokeColor=#BCBDD0;strokeWidth=3;entryX=0.75;entryY=1;entryDx=0;entryDy=0;jumpStyle=arc;exitPerimeter=0;" parent="1" source="55" target="37" edge="1">
                    <mxGeometry relative="1" as="geometry">
                        <mxPoint x="1090" y="390" as="targetPoint"/>
                        <mxPoint x="450.15999999999985" y="679.7600000000002" as="sourcePoint"/>
                        <Array as="points">
                            <mxPoint x="520" y="540"/>
                            <mxPoint x="390" y="540"/>
                        </Array>
                    </mxGeometry>
                </mxCell>
                <mxCell id="43" value="" style="endArrow=classic;html=1;rounded=0;labelBackgroundColor=default;fontFamily=Helvetica;fontSize=14;fontColor=#BCBDD0;strokeColor=#BCBDD0;strokeWidth=3;shape=connector;entryX=0.75;entryY=1;entryDx=0;entryDy=0;jumpStyle=arc;" parent="1" target="2" edge="1">
                    <mxGeometry width="50" height="50" relative="1" as="geometry">
                        <mxPoint x="890" y="620" as="sourcePoint"/>
                        <mxPoint x="830" y="290" as="targetPoint"/>
                        <Array as="points">
                            <mxPoint x="890" y="620"/>
                            <mxPoint x="1210" y="620"/>
                        </Array>
                    </mxGeometry>
                </mxCell>
                <mxCell id="47" value="" style="endArrow=classic;html=1;rounded=0;labelBackgroundColor=default;fontFamily=Helvetica;fontSize=14;fontColor=#BCBDD0;strokeColor=#BCBDD0;strokeWidth=3;shape=connector;entryX=0.75;entryY=1;entryDx=0;entryDy=0;jumpStyle=arc;" parent="1" target="8" edge="1">
                    <mxGeometry width="50" height="50" relative="1" as="geometry">
                        <mxPoint x="890" y="620" as="sourcePoint"/>
                        <mxPoint x="1020" y="560" as="targetPoint"/>
                        <Array as="points">
                            <mxPoint x="890" y="620"/>
                            <mxPoint x="1040" y="620"/>
                        </Array>
                    </mxGeometry>
                </mxCell>
                <mxCell id="49" value="" style="endArrow=classic;html=1;rounded=0;labelBackgroundColor=default;fontFamily=Helvetica;fontSize=14;fontColor=#BCBDD0;strokeColor=#BCBDD0;strokeWidth=3;shape=connector;entryX=0.25;entryY=1;entryDx=0;entryDy=0;jumpStyle=arc;" parent="1" target="37" edge="1">
                    <mxGeometry width="50" height="50" relative="1" as="geometry">
                        <mxPoint x="890" y="620" as="sourcePoint"/>
                        <mxPoint x="440" y="560" as="targetPoint"/>
                        <Array as="points">
                            <mxPoint x="890" y="620"/>
                            <mxPoint x="330" y="620"/>
                        </Array>
                    </mxGeometry>
                </mxCell>
                <mxCell id="61" value="&lt;i style=&quot;font-size: 14px;&quot;&gt;SYS_TIME&lt;/i&gt;" style="text;html=1;strokeColor=none;fillColor=none;align=center;verticalAlign=middle;whiteSpace=wrap;rounded=0;fontFamily=Helvetica;fontSize=14;fontColor=#BCBDD0;" parent="1" vertex="1">
                    <mxGeometry x="890" y="650" width="80" height="30" as="geometry"/>
                </mxCell>
                <mxCell id="65" value="&lt;i style=&quot;font-size: 14px;&quot;&gt;CYCLE&lt;/i&gt;&lt;br style=&quot;font-size: 14px;&quot;&gt;(PWM)" style="text;html=1;strokeColor=none;fillColor=none;align=center;verticalAlign=middle;whiteSpace=wrap;rounded=0;fontFamily=Helvetica;fontSize=14;fontColor=#BCBDD0;" parent="1" vertex="1">
                    <mxGeometry x="1090" y="420" width="70" height="40" as="geometry"/>
                </mxCell>
                <mxCell id="68" value="&lt;span style=&quot;font-style: italic ; font-size: 14px&quot;&gt;CYCLE&lt;/span&gt;&lt;i&gt;/FREQ_DIV&lt;br&gt;&lt;/i&gt;(Modulater)&lt;br&gt;/DELAY" style="text;html=1;strokeColor=none;fillColor=none;align=center;verticalAlign=middle;whiteSpace=wrap;rounded=0;fontFamily=Helvetica;fontSize=14;fontColor=#BCBDD0;" parent="1" vertex="1">
                    <mxGeometry x="710" y="490" width="139.68" height="50" as="geometry"/>
                </mxCell>
                <mxCell id="69" value="&lt;i style=&quot;font-size: 14px&quot;&gt;OP_MODE&lt;/i&gt;" style="text;html=1;strokeColor=none;fillColor=none;align=center;verticalAlign=middle;whiteSpace=wrap;rounded=0;fontFamily=Helvetica;fontSize=14;fontColor=#BCBDD0;" parent="1" vertex="1">
                    <mxGeometry x="600" y="450" width="100.32" height="30" as="geometry"/>
                </mxCell>
                <mxCell id="70" value="" style="endArrow=none;html=1;rounded=1;labelBackgroundColor=default;fontFamily=Helvetica;fontSize=14;fontColor=#BCBDD0;strokeColor=#BCBDD0;strokeWidth=3;shape=connector;" parent="1" edge="1">
                    <mxGeometry width="50" height="50" relative="1" as="geometry">
                        <mxPoint x="1110" y="330" as="sourcePoint"/>
                        <mxPoint x="1130" y="310" as="targetPoint"/>
                        <Array as="points">
                            <mxPoint x="1120" y="320"/>
                        </Array>
                    </mxGeometry>
                </mxCell>
                <mxCell id="72" value="" style="endArrow=none;html=1;rounded=1;labelBackgroundColor=default;fontFamily=Helvetica;fontSize=14;fontColor=#BCBDD0;strokeColor=#BCBDD0;strokeWidth=3;shape=connector;" parent="1" edge="1">
                    <mxGeometry width="50" height="50" relative="1" as="geometry">
                        <mxPoint x="1110" y="370" as="sourcePoint"/>
                        <mxPoint x="1130" y="350" as="targetPoint"/>
                        <Array as="points">
                            <mxPoint x="1120" y="360"/>
                        </Array>
                    </mxGeometry>
                </mxCell>
                <mxCell id="73" value="" style="endArrow=none;html=1;rounded=1;labelBackgroundColor=default;fontFamily=Helvetica;fontSize=14;fontColor=#BCBDD0;strokeColor=#BCBDD0;strokeWidth=3;shape=connector;" parent="1" edge="1">
                    <mxGeometry width="50" height="50" relative="1" as="geometry">
                        <mxPoint x="940.32" y="330" as="sourcePoint"/>
                        <mxPoint x="960.32" y="310" as="targetPoint"/>
                    </mxGeometry>
                </mxCell>
                <mxCell id="75" value="" style="endArrow=none;html=1;rounded=1;labelBackgroundColor=default;fontFamily=Helvetica;fontSize=14;fontColor=#BCBDD0;strokeColor=#BCBDD0;strokeWidth=3;shape=connector;" parent="1" edge="1">
                    <mxGeometry width="50" height="50" relative="1" as="geometry">
                        <mxPoint x="940.16" y="370" as="sourcePoint"/>
                        <mxPoint x="960.16" y="350" as="targetPoint"/>
                    </mxGeometry>
                </mxCell>
                <mxCell id="77" value="" style="endArrow=none;html=1;rounded=1;labelBackgroundColor=default;fontFamily=Helvetica;fontSize=14;fontColor=#BCBDD0;strokeColor=#BCBDD0;strokeWidth=3;shape=connector;" parent="1" edge="1">
                    <mxGeometry width="50" height="50" relative="1" as="geometry">
                        <mxPoint x="780.32" y="330" as="sourcePoint"/>
                        <mxPoint x="800.32" y="310" as="targetPoint"/>
                    </mxGeometry>
                </mxCell>
                <mxCell id="78" value="" style="endArrow=none;html=1;rounded=1;labelBackgroundColor=default;fontFamily=Helvetica;fontSize=14;fontColor=#BCBDD0;strokeColor=#BCBDD0;strokeWidth=3;shape=connector;" parent="1" edge="1">
                    <mxGeometry width="50" height="50" relative="1" as="geometry">
                        <mxPoint x="610" y="315" as="sourcePoint"/>
                        <mxPoint x="630" y="295" as="targetPoint"/>
                    </mxGeometry>
                </mxCell>
                <mxCell id="79" value="" style="endArrow=none;html=1;rounded=1;labelBackgroundColor=default;fontFamily=Helvetica;fontSize=14;fontColor=#BCBDD0;strokeColor=#BCBDD0;strokeWidth=3;shape=connector;" parent="1" edge="1">
                    <mxGeometry width="50" height="50" relative="1" as="geometry">
                        <mxPoint x="610" y="390" as="sourcePoint"/>
                        <mxPoint x="630" y="370" as="targetPoint"/>
                    </mxGeometry>
                </mxCell>
                <mxCell id="80" value="&lt;i style=&quot;font-size: 14px&quot;&gt;CYCLE&lt;/i&gt;&lt;br style=&quot;font-size: 14px&quot;&gt;(Silencer)&lt;br style=&quot;font-size: 14px&quot;&gt;&lt;i&gt;/STEP&lt;/i&gt;" style="text;html=1;strokeColor=none;fillColor=none;align=center;verticalAlign=middle;whiteSpace=wrap;rounded=0;fontFamily=Helvetica;fontSize=14;fontColor=#BCBDD0;" parent="1" vertex="1">
                    <mxGeometry x="900" y="420" width="100.32" height="60" as="geometry"/>
                </mxCell>
                <mxCell id="82" value="" style="shape=flexArrow;endArrow=classic;html=1;rounded=0;labelBackgroundColor=default;fontFamily=Helvetica;fontSize=14;fontColor=#BCBDD0;strokeColor=#BCBDD0;strokeWidth=3;jumpStyle=arc;entryX=0;entryY=0.5;entryDx=0;entryDy=0;fillColor=#BCBDD0;" parent="1" target="37" edge="1">
                    <mxGeometry width="50" height="50" relative="1" as="geometry">
                        <mxPoint x="120" y="420" as="sourcePoint"/>
                        <mxPoint x="250" y="420" as="targetPoint"/>
                        <Array as="points">
                            <mxPoint x="220" y="420"/>
                            <mxPoint x="220" y="380"/>
                        </Array>
                    </mxGeometry>
                </mxCell>
                <mxCell id="83" value="" style="shape=flexArrow;endArrow=classic;html=1;rounded=0;labelBackgroundColor=default;fontFamily=Helvetica;fontSize=14;fontColor=#BCBDD0;strokeColor=#BCBDD0;strokeWidth=3;jumpStyle=arc;entryX=0;entryY=0.5;entryDx=0;entryDy=0;sketch=0;fillColor=#BCBDD0;" parent="1" target="36" edge="1">
                    <mxGeometry width="50" height="50" relative="1" as="geometry">
                        <mxPoint x="120" y="420" as="sourcePoint"/>
                        <mxPoint x="220" y="130" as="targetPoint"/>
                        <Array as="points">
                            <mxPoint x="220" y="420"/>
                            <mxPoint x="220" y="305"/>
                        </Array>
                    </mxGeometry>
                </mxCell>
                <mxCell id="85" value="" style="shape=flexArrow;endArrow=classic;html=1;rounded=0;labelBackgroundColor=default;fontFamily=Helvetica;fontSize=14;fontColor=#BCBDD0;strokeColor=#BCBDD0;strokeWidth=3;jumpStyle=arc;entryX=0.5;entryY=0;entryDx=0;entryDy=0;sketch=0;fillColor=#BCBDD0;" parent="1" target="22" edge="1">
                    <mxGeometry width="50" height="50" relative="1" as="geometry">
                        <mxPoint x="200" y="420" as="sourcePoint"/>
                        <mxPoint x="390" y="270" as="targetPoint"/>
                        <Array as="points">
                            <mxPoint x="220" y="420"/>
                            <mxPoint x="220" y="160"/>
                            <mxPoint x="870" y="160"/>
                        </Array>
                    </mxGeometry>
                </mxCell>
                <mxCell id="86" value="" style="shape=flexArrow;endArrow=classic;html=1;rounded=0;labelBackgroundColor=default;fontFamily=Helvetica;fontSize=14;fontColor=#BCBDD0;strokeColor=#BCBDD0;strokeWidth=3;jumpStyle=arc;entryX=0;entryY=0.25;entryDx=0;entryDy=0;fillColor=#BCBDD0;exitX=1;exitY=0.5;exitDx=0;exitDy=0;" parent="1" source="108" target="55" edge="1">
                    <mxGeometry width="50" height="50" relative="1" as="geometry">
                        <mxPoint x="170" y="430" as="sourcePoint"/>
                        <mxPoint x="430" y="720" as="targetPoint"/>
                        <Array as="points">
                            <mxPoint x="220" y="420"/>
                            <mxPoint x="220" y="710"/>
                        </Array>
                    </mxGeometry>
                </mxCell>
                <mxCell id="52" style="edgeStyle=none;shape=connector;rounded=0;html=1;labelBackgroundColor=default;fontFamily=Helvetica;fontSize=14;fontColor=#BCBDD0;endArrow=classic;strokeColor=#BCBDD0;strokeWidth=3;jumpStyle=arc;entryX=0.75;entryY=1;entryDx=0;entryDy=0;" parent="1" target="22" edge="1">
                    <mxGeometry relative="1" as="geometry">
                        <mxPoint x="890" y="610" as="sourcePoint"/>
                        <mxPoint x="940" y="360" as="targetPoint"/>
                    </mxGeometry>
                </mxCell>
                <mxCell id="89" style="edgeStyle=none;shape=connector;rounded=0;html=1;labelBackgroundColor=default;fontFamily=Helvetica;fontSize=14;fontColor=#BCBDD0;endArrow=classic;strokeColor=#BCBDD0;strokeWidth=3;entryX=0.5;entryY=1;entryDx=0;entryDy=0;jumpStyle=arc;" parent="1" target="8" edge="1">
                    <mxGeometry relative="1" as="geometry">
                        <mxPoint x="1170" y="390" as="targetPoint"/>
                        <mxPoint x="1020" y="580" as="sourcePoint"/>
                    </mxGeometry>
                </mxCell>
                <mxCell id="90" value="" style="endArrow=none;html=1;rounded=1;labelBackgroundColor=default;fontFamily=Helvetica;fontSize=14;fontColor=#BCBDD0;strokeColor=#BCBDD0;strokeWidth=3;shape=connector;" parent="1" edge="1">
                    <mxGeometry width="50" height="50" relative="1" as="geometry">
                        <mxPoint x="1010" y="420" as="sourcePoint"/>
                        <mxPoint x="1030" y="400" as="targetPoint"/>
                    </mxGeometry>
                </mxCell>
                <mxCell id="91" value="" style="endArrow=none;html=1;rounded=1;labelBackgroundColor=default;fontFamily=Helvetica;fontSize=14;fontColor=#BCBDD0;strokeColor=#BCBDD0;strokeWidth=3;shape=connector;" parent="1" edge="1">
                    <mxGeometry width="50" height="50" relative="1" as="geometry">
                        <mxPoint x="1160" y="420" as="sourcePoint"/>
                        <mxPoint x="1180" y="400" as="targetPoint"/>
                    </mxGeometry>
                </mxCell>
                <mxCell id="92" value="&lt;i style=&quot;font-size: 14px&quot;&gt;ECAT_SYNC_TIME&lt;/i&gt;" style="text;html=1;strokeColor=none;fillColor=none;align=center;verticalAlign=middle;whiteSpace=wrap;rounded=0;fontFamily=Helvetica;fontSize=14;fontColor=#BCBDD0;" parent="1" vertex="1">
                    <mxGeometry x="620" y="680" width="137.82" height="30" as="geometry"/>
                </mxCell>
                <mxCell id="93" value="" style="endArrow=classic;html=1;rounded=0;labelBackgroundColor=default;fontFamily=Helvetica;fontSize=14;fontColor=#BCBDD0;strokeColor=#BCBDD0;strokeWidth=3;shape=connector;entryX=0;entryY=0.25;entryDx=0;entryDy=0;exitX=1;exitY=0.25;exitDx=0;exitDy=0;" parent="1" source="55" target="35" edge="1">
                    <mxGeometry width="50" height="50" relative="1" as="geometry">
                        <mxPoint x="620" y="640" as="sourcePoint"/>
                        <mxPoint x="670.3199999999997" y="320.0000000000002" as="targetPoint"/>
                    </mxGeometry>
                </mxCell>
                <mxCell id="94" value="" style="endArrow=classic;html=1;rounded=0;labelBackgroundColor=default;fontFamily=Helvetica;fontSize=14;fontColor=#BCBDD0;strokeColor=#BCBDD0;strokeWidth=3;shape=connector;entryX=0;entryY=0.75;entryDx=0;entryDy=0;exitX=1;exitY=0.75;exitDx=0;exitDy=0;" parent="1" source="55" target="35" edge="1">
                    <mxGeometry width="50" height="50" relative="1" as="geometry">
                        <mxPoint x="640" y="710" as="sourcePoint"/>
                        <mxPoint x="750" y="710" as="targetPoint"/>
                    </mxGeometry>
                </mxCell>
                <mxCell id="95" value="&lt;i style=&quot;font-size: 14px;&quot;&gt;SET&lt;/i&gt;" style="text;html=1;strokeColor=none;fillColor=none;align=center;verticalAlign=middle;whiteSpace=wrap;rounded=0;fontFamily=Helvetica;fontSize=14;fontColor=#BCBDD0;" parent="1" vertex="1">
                    <mxGeometry x="620" y="740" width="40" height="30" as="geometry"/>
                </mxCell>
                <mxCell id="96" value="&lt;span style=&quot;font-style: italic ; font-size: 14px&quot;&gt;CYCLE&lt;/span&gt;&lt;span style=&quot;font-size: 14px&quot;&gt;&lt;i&gt;/&lt;/i&gt;&lt;/span&gt;&lt;i&gt;FREQ_DIV&lt;br&gt;&lt;/i&gt;(STM)&lt;br&gt;&lt;i&gt;/STM_MODE&lt;br&gt;/SOUND_SPEED&lt;br&gt;&lt;/i&gt;" style="text;html=1;strokeColor=none;fillColor=none;align=center;verticalAlign=middle;whiteSpace=wrap;rounded=0;fontFamily=Helvetica;fontSize=14;fontColor=#BCBDD0;" parent="1" vertex="1">
                    <mxGeometry x="390" y="460" width="140.32" height="80" as="geometry"/>
                </mxCell>
                <mxCell id="97" value="&lt;i style=&quot;font-size: 14px;&quot;&gt;PHASE&lt;/i&gt;" style="text;html=1;strokeColor=none;fillColor=none;align=center;verticalAlign=middle;whiteSpace=wrap;rounded=0;fontFamily=Helvetica;fontSize=14;fontColor=#BCBDD0;" parent="1" vertex="1">
                    <mxGeometry x="910" y="330" width="60" height="30" as="geometry"/>
                </mxCell>
                <mxCell id="98" value="" style="endArrow=none;html=1;rounded=1;labelBackgroundColor=default;fontFamily=Helvetica;fontSize=14;fontColor=#BCBDD0;strokeColor=#BCBDD0;strokeWidth=3;shape=connector;" parent="1" edge="1">
                    <mxGeometry width="50" height="50" relative="1" as="geometry">
                        <mxPoint x="780.0000000000001" y="370" as="sourcePoint"/>
                        <mxPoint x="800.0000000000001" y="350" as="targetPoint"/>
                    </mxGeometry>
                </mxCell>
                <mxCell id="99" value="" style="endArrow=classic;html=1;rounded=0;labelBackgroundColor=default;fontFamily=Helvetica;fontSize=14;fontColor=#BCBDD0;strokeColor=#BCBDD0;strokeWidth=3;shape=connector;entryX=0;entryY=0.75;entryDx=0;entryDy=0;exitX=0.669;exitY=-0.005;exitDx=0;exitDy=0;exitPerimeter=0;" parent="1" source="31" target="22" edge="1">
                    <mxGeometry width="50" height="50" relative="1" as="geometry">
                        <mxPoint x="740.5150000000001" y="369.80000000000007" as="sourcePoint"/>
                        <mxPoint x="990" y="370" as="targetPoint"/>
                    </mxGeometry>
                </mxCell>
                <mxCell id="102" value="&lt;i style=&quot;font-size: 14px;&quot;&gt;DUTY&lt;/i&gt;" style="text;html=1;strokeColor=none;fillColor=none;align=center;verticalAlign=middle;whiteSpace=wrap;rounded=0;fontFamily=Helvetica;fontSize=14;fontColor=#BCBDD0;" parent="1" vertex="1">
                    <mxGeometry x="730" y="290" width="50" height="30" as="geometry"/>
                </mxCell>
                <mxCell id="103" value="&lt;i style=&quot;font-size: 14px;&quot;&gt;PHASE&lt;/i&gt;" style="text;html=1;strokeColor=none;fillColor=none;align=center;verticalAlign=middle;whiteSpace=wrap;rounded=0;fontFamily=Helvetica;fontSize=14;fontColor=#BCBDD0;" parent="1" vertex="1">
                    <mxGeometry x="730" y="330" width="60" height="30" as="geometry"/>
                </mxCell>
                <mxCell id="106" value="" style="endArrow=none;html=1;rounded=0;labelBackgroundColor=default;fontFamily=Helvetica;fontSize=14;fontColor=#BCBDD0;strokeColor=#BCBDD0;strokeWidth=3;shape=connector;exitX=0;exitY=0.5;exitDx=0;exitDy=0;startArrow=classic;startFill=1;endFill=0;" parent="1" source="55" edge="1">
                    <mxGeometry width="50" height="50" relative="1" as="geometry">
                        <mxPoint x="630" y="780" as="sourcePoint"/>
                        <mxPoint x="120" y="740" as="targetPoint"/>
                    </mxGeometry>
                </mxCell>
                <mxCell id="107" value="" style="endArrow=classic;html=1;rounded=0;labelBackgroundColor=default;fontFamily=Helvetica;fontSize=14;fontColor=#BCBDD0;strokeColor=#BCBDD0;strokeWidth=3;shape=connector;exitX=0;exitY=0.75;exitDx=0;exitDy=0;" parent="1" source="55" edge="1">
                    <mxGeometry width="50" height="50" relative="1" as="geometry">
                        <mxPoint x="490" y="770" as="sourcePoint"/>
                        <mxPoint x="120" y="770" as="targetPoint"/>
                    </mxGeometry>
                </mxCell>
                <mxCell id="108" value="&lt;i style=&quot;font-size: 14px&quot;&gt;CPU_BUS&lt;/i&gt;" style="text;html=1;strokeColor=none;fillColor=none;align=center;verticalAlign=middle;whiteSpace=wrap;rounded=0;fontFamily=Helvetica;fontSize=14;fontColor=#BCBDD0;" parent="1" vertex="1">
                    <mxGeometry x="40" y="400" width="79.68" height="40" as="geometry"/>
                </mxCell>
                <mxCell id="109" value="&lt;i style=&quot;font-size: 14px&quot;&gt;THERMO&lt;/i&gt;" style="text;html=1;strokeColor=none;fillColor=none;align=center;verticalAlign=middle;whiteSpace=wrap;rounded=0;fontFamily=Helvetica;fontSize=14;fontColor=#BCBDD0;" parent="1" vertex="1">
                    <mxGeometry x="50" y="720" width="69.68" height="40" as="geometry"/>
                </mxCell>
                <mxCell id="110" value="&lt;i style=&quot;font-size: 14px&quot;&gt;FORCE_FAN&lt;/i&gt;" style="text;html=1;strokeColor=none;fillColor=none;align=center;verticalAlign=middle;whiteSpace=wrap;rounded=0;fontFamily=Helvetica;fontSize=14;fontColor=#BCBDD0;" parent="1" vertex="1">
                    <mxGeometry x="30" y="750" width="89.68" height="40" as="geometry"/>
                </mxCell>
                <mxCell id="111" value="&lt;i style=&quot;font-size: 14px&quot;&gt;PWM_OUT&lt;/i&gt;" style="text;html=1;strokeColor=none;fillColor=none;align=center;verticalAlign=middle;whiteSpace=wrap;rounded=0;fontFamily=Helvetica;fontSize=14;fontColor=#BCBDD0;" parent="1" vertex="1">
                    <mxGeometry x="1320" y="320" width="80" height="40" as="geometry"/>
                </mxCell>
                <mxCell id="113" style="edgeStyle=none;shape=connector;rounded=0;html=1;labelBackgroundColor=default;fontFamily=Helvetica;fontSize=14;fontColor=#BCBDD0;endArrow=none;strokeColor=#BCBDD0;strokeWidth=3;jumpStyle=arc;exitX=0.5;exitY=0;exitDx=0;exitDy=0;endFill=0;" parent="1" source="35" edge="1">
                    <mxGeometry relative="1" as="geometry">
                        <mxPoint x="900" y="620" as="sourcePoint"/>
                        <mxPoint x="890" y="600" as="targetPoint"/>
                    </mxGeometry>
                </mxCell>
            </root>
        </mxGraphModel>
    </diagram>
</mxfile>